<svg width="413" height="75" viewBox="0 0 413 75" fill="none" xmlns="http://www.w3.org/2000/svg">
<path d="M192.527 47.6973C192.527 48.0254 192.469 48.3301 192.352 48.6113C192.234 48.8926 192.07 49.1387 191.859 49.3496C191.66 49.5488 191.42 49.707 191.139 49.8242C190.857 49.9414 190.553 50 190.225 50H173.736C173.314 50 172.857 49.9531 172.365 49.8594C171.885 49.7539 171.404 49.5957 170.924 49.3848C170.455 49.1738 170.004 48.9043 169.57 48.5762C169.137 48.2363 168.75 47.832 168.41 47.3633C168.082 46.8828 167.818 46.332 167.619 45.7109C167.42 45.0781 167.32 44.3691 167.32 43.584V31.209C167.32 30.7871 167.367 30.3359 167.461 29.8555C167.566 29.3633 167.725 28.8828 167.936 28.4141C168.146 27.9336 168.422 27.4766 168.762 27.043C169.102 26.6094 169.506 26.2285 169.975 25.9004C170.455 25.5605 171.006 25.291 171.627 25.0918C172.248 24.8926 172.951 24.793 173.736 24.793H192.316V29.3633H173.736C173.139 29.3633 172.682 29.5215 172.365 29.8379C172.049 30.1543 171.891 30.623 171.891 31.2441V43.584C171.891 44.1699 172.049 44.627 172.365 44.9551C172.693 45.2715 173.15 45.4297 173.736 45.4297H187.957V39.6992H175.793V35.0938H190.225C190.553 35.0938 190.857 35.1582 191.139 35.2871C191.42 35.4043 191.66 35.5684 191.859 35.7793C192.07 35.9902 192.234 36.2363 192.352 36.5176C192.469 36.7871 192.527 37.0801 192.527 37.3965V47.6973ZM216.398 43.707C216.398 44.3398 216.287 45.0254 216.064 45.7637C215.842 46.4902 215.479 47.1699 214.975 47.8027C214.482 48.4238 213.832 48.9453 213.023 49.3672C212.227 49.7891 211.254 50 210.105 50H201.861C201.229 50 200.543 49.8887 199.805 49.666C199.078 49.4434 198.398 49.0859 197.766 48.5938C197.145 48.0898 196.623 47.4395 196.201 46.6426C195.779 45.834 195.568 44.8555 195.568 43.707C195.568 43.0742 195.68 42.3887 195.902 41.6504C196.125 40.9121 196.482 40.2324 196.975 39.6113C197.479 38.9785 198.129 38.4512 198.926 38.0293C199.734 37.6074 200.713 37.3965 201.861 37.3965H210.105V41.7559H201.861C201.24 41.7559 200.76 41.9492 200.42 42.3359C200.08 42.7109 199.91 43.1797 199.91 43.7422C199.91 44.3398 200.104 44.8086 200.49 45.1484C200.889 45.4766 201.357 45.6406 201.896 45.6406H210.105C210.727 45.6406 211.207 45.4531 211.547 45.0781C211.887 44.7031 212.057 44.2344 212.057 43.6719V37.291C212.057 36.6934 211.869 36.2188 211.494 35.8672C211.131 35.5156 210.668 35.3398 210.105 35.3398H200.068V30.998H210.105C210.738 30.998 211.418 31.1094 212.145 31.332C212.883 31.5547 213.562 31.918 214.184 32.4219C214.816 32.9141 215.344 33.5645 215.766 34.373C216.188 35.1699 216.398 36.1426 216.398 37.291V43.707ZM237.264 50H232.693V37.3965C232.693 36.7988 232.535 36.3477 232.219 36.043C231.902 35.7266 231.434 35.5684 230.812 35.5684H224.871V50H220.301V33.2656C220.301 32.9492 220.359 32.6562 220.477 32.3867C220.594 32.1055 220.758 31.8652 220.969 31.666C221.18 31.4551 221.426 31.291 221.707 31.1738C221.988 31.0566 222.287 30.998 222.604 30.998H230.848C231.48 30.998 232.16 31.1094 232.887 31.332C233.613 31.5547 234.305 31.9121 234.961 32.4043V30.998H241.148C241.582 30.998 242.039 31.0508 242.52 31.1562C243 31.25 243.475 31.4023 243.943 31.6133C244.424 31.8242 244.881 32.0996 245.314 32.4395C245.748 32.7676 246.129 33.1719 246.457 33.6523C246.785 34.1211 247.049 34.666 247.248 35.2871C247.447 35.9082 247.547 36.6113 247.547 37.3965V50H242.977V37.3965C242.977 36.7988 242.824 36.3477 242.52 36.043C242.227 35.7266 241.77 35.5684 241.148 35.5684H237.035C237.188 36.1309 237.264 36.7402 237.264 37.3965V50ZM272.209 37.291C272.209 37.9238 272.098 38.6094 271.875 39.3477C271.652 40.0742 271.289 40.7539 270.785 41.3867C270.293 42.0078 269.643 42.5293 268.834 42.9512C268.037 43.373 267.064 43.584 265.916 43.584H257.672V39.2422H265.916C266.537 39.2422 267.018 39.0547 267.357 38.6797C267.697 38.293 267.867 37.8184 267.867 37.2559C267.867 36.6582 267.674 36.1895 267.287 35.8496C266.912 35.5098 266.455 35.3398 265.916 35.3398H257.672C257.051 35.3398 256.57 35.5332 256.23 35.9199C255.891 36.2949 255.721 36.7637 255.721 37.3262V43.707C255.721 44.3164 255.908 44.791 256.283 45.1309C256.67 45.4707 257.145 45.6406 257.707 45.6406H265.916V50H257.672C257.039 50 256.354 49.8887 255.615 49.666C254.889 49.4434 254.209 49.0859 253.576 48.5938C252.955 48.0898 252.434 47.4395 252.012 46.6426C251.59 45.834 251.379 44.8555 251.379 43.707V37.291C251.379 36.6582 251.49 35.9785 251.713 35.252C251.936 34.5137 252.293 33.834 252.785 33.2129C253.289 32.5801 253.939 32.0527 254.736 31.6309C255.545 31.209 256.523 30.998 257.672 30.998H265.916C266.549 30.998 267.229 31.1094 267.955 31.332C268.693 31.5547 269.373 31.918 269.994 32.4219C270.627 32.9141 271.154 33.5645 271.576 34.373C271.998 35.1699 272.209 36.1426 272.209 37.291ZM291.914 35.5684H281.631C281.01 35.5684 280.541 35.7266 280.225 36.043C279.908 36.3477 279.75 36.7988 279.75 37.3965V50H275.18V37.3965C275.18 36.6113 275.279 35.9082 275.479 35.2871C275.678 34.666 275.941 34.1211 276.27 33.6523C276.609 33.1719 276.996 32.7676 277.43 32.4395C277.863 32.0996 278.314 31.8242 278.783 31.6133C279.264 31.4023 279.744 31.25 280.225 31.1562C280.717 31.0508 281.174 30.998 281.596 30.998H291.914V35.5684Z" fill="black"/>
<path d="M320.637 48.0488C320.637 48.377 320.572 48.6816 320.443 48.9629C320.326 49.2441 320.162 49.4902 319.951 49.7012C319.752 49.9004 319.512 50.0586 319.23 50.1758C318.949 50.293 318.65 50.3516 318.334 50.3516C318.053 50.3516 317.766 50.2988 317.473 50.1934C317.191 50.0879 316.939 49.918 316.717 49.6836L300.018 32.2461V50H295.447V26.7441C295.447 26.2754 295.576 25.8535 295.834 25.4785C296.104 25.0918 296.443 24.8047 296.854 24.6172C297.287 24.4414 297.732 24.4004 298.189 24.4941C298.646 24.5762 299.039 24.7871 299.367 25.127L316.066 42.5469V24.793H320.637V48.0488ZM345.756 37.291C345.756 37.9238 345.645 38.6094 345.422 39.3477C345.199 40.0742 344.836 40.7539 344.332 41.3867C343.84 42.0078 343.189 42.5293 342.381 42.9512C341.584 43.373 340.611 43.584 339.463 43.584H331.219V39.2422H339.463C340.084 39.2422 340.564 39.0547 340.904 38.6797C341.244 38.293 341.414 37.8184 341.414 37.2559C341.414 36.6582 341.221 36.1895 340.834 35.8496C340.459 35.5098 340.002 35.3398 339.463 35.3398H331.219C330.598 35.3398 330.117 35.5332 329.777 35.9199C329.438 36.2949 329.268 36.7637 329.268 37.3262V43.707C329.268 44.3164 329.455 44.791 329.83 45.1309C330.217 45.4707 330.691 45.6406 331.254 45.6406H339.463V50H331.219C330.586 50 329.9 49.8887 329.162 49.666C328.436 49.4434 327.756 49.0859 327.123 48.5938C326.502 48.0898 325.98 47.4395 325.559 46.6426C325.137 45.834 324.926 44.8555 324.926 43.707V37.291C324.926 36.6582 325.037 35.9785 325.26 35.252C325.482 34.5137 325.84 33.834 326.332 33.2129C326.836 32.5801 327.486 32.0527 328.283 31.6309C329.092 31.209 330.07 30.998 331.219 30.998H339.463C340.096 30.998 340.775 31.1094 341.502 31.332C342.24 31.5547 342.92 31.918 343.541 32.4219C344.174 32.9141 344.701 33.5645 345.123 34.373C345.545 35.1699 345.756 36.1426 345.756 37.291ZM380.121 30.998C379.395 32.627 378.609 34.2324 377.766 35.8145C376.922 37.3848 376.037 38.873 375.111 40.2793C374.197 41.6855 373.26 42.9863 372.299 44.1816C371.338 45.3652 370.383 46.3906 369.434 47.2578C368.496 48.1133 367.576 48.7871 366.674 49.2793C365.783 49.7598 364.939 50 364.143 50C363.814 50 363.51 49.9414 363.229 49.8242C362.947 49.707 362.701 49.5488 362.49 49.3496C362.279 49.1387 362.115 48.8926 361.998 48.6113C361.881 48.3301 361.822 48.0254 361.822 47.6973V39.1719L352.752 49.3145C352.518 49.5488 352.26 49.7246 351.979 49.8418C351.709 49.9473 351.428 50 351.135 50C350.818 50 350.52 49.9414 350.238 49.8242C349.969 49.707 349.729 49.5488 349.518 49.3496C349.307 49.1387 349.137 48.8926 349.008 48.6113C348.891 48.3301 348.832 48.0254 348.832 47.6973V30.998H353.402V41.8262L362.508 31.6484C362.836 31.3203 363.223 31.1152 363.668 31.0332C364.125 30.9395 364.57 30.9863 365.004 31.1738C365.438 31.3496 365.777 31.6309 366.023 32.0176C366.281 32.3926 366.41 32.8086 366.41 33.2656V44.1289C367.395 43.1797 368.285 42.1777 369.082 41.123C369.879 40.0684 370.617 38.9844 371.297 37.8711C371.988 36.7461 372.633 35.6094 373.23 34.4609C373.84 33.3008 374.432 32.1465 375.006 30.998H380.121ZM400.072 43.584C400.072 44.3691 399.973 45.0781 399.773 45.7109C399.574 46.332 399.311 46.8828 398.982 47.3633C398.654 47.832 398.273 48.2363 397.84 48.5762C397.406 48.9043 396.949 49.1738 396.469 49.3848C396 49.5957 395.52 49.7539 395.027 49.8594C394.547 49.9531 394.09 50 393.656 50H381.281V45.4297H393.621C394.242 45.4297 394.711 45.2715 395.027 44.9551C395.344 44.6387 395.502 44.1816 395.502 43.584C395.443 42.3652 394.828 41.7559 393.656 41.7559H386.572C385.564 41.7559 384.709 41.5801 384.006 41.2285C383.303 40.877 382.729 40.4375 382.283 39.9102C381.85 39.3828 381.533 38.8145 381.334 38.2051C381.146 37.5957 381.053 37.0273 381.053 36.5C381.053 35.4805 381.234 34.625 381.598 33.9336C381.961 33.2305 382.418 32.6621 382.969 32.2285C383.52 31.7949 384.117 31.4844 384.762 31.2969C385.406 31.0977 386.01 30.998 386.572 30.998H397.805V35.5684H386.607C386.373 35.5684 386.186 35.5977 386.045 35.6562C385.916 35.7031 385.816 35.7734 385.746 35.8672C385.688 35.9492 385.652 36.043 385.641 36.1484C385.629 36.2422 385.623 36.3359 385.623 36.4297C385.635 36.6172 385.67 36.7637 385.729 36.8691C385.787 36.9746 385.857 37.0508 385.939 37.0977C386.033 37.1445 386.133 37.1738 386.238 37.1855C386.355 37.1855 386.467 37.1855 386.572 37.1855H393.656C394.828 37.1855 395.824 37.3965 396.645 37.8184C397.465 38.2402 398.127 38.7734 398.631 39.418C399.135 40.0508 399.498 40.7422 399.721 41.4922C399.955 42.2422 400.072 42.9395 400.072 43.584Z" fill="#EE6C4D"/>
<path d="M112.514 3.82609e-07H37.5027C31.3201 -0.000882753 25.2333 1.52708 19.784 4.44786C14.3348 7.36864 9.69222 11.5916 6.26968 16.7408C2.84715 21.89 0.750832 27.8056 0.167364 33.961C-0.416104 40.1164 0.531383 46.3206 2.92547 52.0212C5.31956 57.7218 9.08596 62.742 13.8894 66.6348C18.6928 70.5275 24.3841 73.1721 30.4567 74.333C36.5293 75.494 42.7947 75.1353 48.6952 73.2888C54.5956 71.4424 59.948 68.1655 64.2758 63.75H85.7242C90.0516 68.1651 95.4032 71.4417 101.303 73.2882C107.203 75.1348 113.467 75.494 119.539 74.3338C125.611 73.1737 131.302 70.5302 136.106 66.6386C140.909 62.7471 144.676 57.7282 147.071 52.0288C149.466 46.3293 150.415 40.1261 149.834 33.9712C149.252 27.8163 147.158 21.9008 143.737 16.751C140.317 11.6013 135.676 7.37718 130.229 4.45465C124.781 1.53211 118.696 0.00182231 112.514 3.82609e-07ZM58.1262 40.3125C58.1262 41.0584 57.8299 41.7738 57.3025 42.3012C56.7751 42.8287 56.0598 43.125 55.3139 43.125H43.1273V55.3125C43.1273 56.0584 42.831 56.7738 42.3036 57.3012C41.7762 57.8287 41.0609 58.125 40.315 58.125H34.6904C33.9445 58.125 33.2292 57.8287 32.7018 57.3012C32.1744 56.7738 31.8781 56.0584 31.8781 55.3125V43.125H19.6915C18.9456 43.125 18.2303 42.8287 17.7029 42.3012C17.1755 41.7738 16.8792 41.0584 16.8792 40.3125V34.6875C16.8792 33.9416 17.1755 33.2262 17.7029 32.6988C18.2303 32.1713 18.9456 31.875 19.6915 31.875H31.8781V19.6875C31.8781 18.9416 32.1744 18.2262 32.7018 17.6988C33.2292 17.1713 33.9445 16.875 34.6904 16.875H40.315C41.0609 16.875 41.7762 17.1713 42.3036 17.6988C42.831 18.2262 43.1273 18.9416 43.1273 19.6875V31.875H55.3139C56.0598 31.875 56.7751 32.1713 57.3025 32.6988C57.8299 33.2262 58.1262 33.9416 58.1262 34.6875V40.3125ZM108.748 58.125C106.894 58.125 105.081 57.5752 103.539 56.545C101.998 55.5149 100.796 54.0507 100.087 52.3377C99.3773 50.6246 99.1917 48.7396 99.5534 46.921C99.9151 45.1025 100.808 43.432 102.119 42.1209C103.43 40.8098 105.1 39.9169 106.919 39.5551C108.737 39.1934 110.622 39.3791 112.335 40.0886C114.048 40.7982 115.512 41.9998 116.542 43.5415C117.572 45.0832 118.122 46.8958 118.122 48.75C118.122 51.2364 117.134 53.621 115.376 55.3791C113.618 57.1373 111.234 58.125 108.748 58.125ZM123.747 35.625C121.892 35.625 120.08 35.0752 118.538 34.045C116.997 33.0149 115.795 31.5507 115.086 29.8377C114.376 28.1246 114.191 26.2396 114.552 24.421C114.914 22.6025 115.807 20.932 117.118 19.6209C118.429 18.3098 120.099 17.4169 121.918 17.0551C123.736 16.6934 125.621 16.8791 127.334 17.5886C129.047 18.2982 130.511 19.4998 131.541 21.0415C132.571 22.5832 133.121 24.3958 133.121 26.25C133.121 28.7364 132.133 31.121 130.375 32.8791C128.617 34.6373 126.233 35.625 123.747 35.625Z" fill="#2AB4D2"/>
</svg>
